<svg width="131" height="43" viewBox="0 0 131 43" fill="none" xmlns="http://www.w3.org/2000/svg">
<path d="M55.9011 22.6287C55.9011 28.8152 51.0614 33.3739 45.122 33.3739C39.1826 33.3739 34.3429 28.8152 34.3429 22.6287C34.3429 16.3986 39.1826 11.8835 45.122 11.8835C51.0614 11.8835 55.9011 16.3986 55.9011 22.6287ZM51.1825 22.6287C51.1825 18.7628 48.3775 16.1177 45.122 16.1177C41.8665 16.1177 39.0615 18.7628 39.0615 22.6287C39.0615 26.4559 41.8665 29.1398 45.122 29.1398C48.3775 29.1398 51.1825 26.4511 51.1825 22.6287Z" fill="white"/>
<path d="M79.155 22.6287C79.155 28.8152 74.3153 33.3739 68.3759 33.3739C62.4365 33.3739 57.5968 28.8152 57.5968 22.6287C57.5968 16.4035 62.4365 11.8835 68.3759 11.8835C74.3153 11.8835 79.155 16.3986 79.155 22.6287ZM74.4364 22.6287C74.4364 18.7628 71.6314 16.1177 68.3759 16.1177C65.1204 16.1177 62.3154 18.7628 62.3154 22.6287C62.3154 26.4559 65.1204 29.1398 68.3759 29.1398C71.6314 29.1398 74.4364 26.4511 74.4364 22.6287Z" fill="white"/>
<path d="M101.44 12.5327V31.8236C101.44 39.759 96.7598 43 91.2274 43C86.0195 43 82.8851 39.5168 81.703 36.6682L85.8112 34.9581C86.5427 36.7069 88.3352 38.7707 91.2225 38.7707C94.7639 38.7707 96.9585 36.5858 96.9585 32.4728V30.9274H96.7937C95.7376 32.2306 93.7029 33.369 91.1353 33.369C85.7627 33.369 80.8407 28.6892 80.8407 22.6675C80.8407 16.6021 85.7627 11.8835 91.1353 11.8835C93.6981 11.8835 95.7328 13.022 96.7937 14.2864H96.9585V12.5376H101.44V12.5327ZM97.2927 22.6675C97.2927 18.8839 94.7687 16.1177 91.5568 16.1177C88.3013 16.1177 85.5738 18.8839 85.5738 22.6675C85.5738 26.4123 88.3013 29.1398 91.5568 29.1398C94.7687 29.1398 97.2927 26.4123 97.2927 22.6675Z" fill="white"/>
<path d="M108.827 1.22583V32.7153H104.225V1.22583H108.827Z" fill="white"/>
<path d="M126.762 26.1654L130.425 28.6071C129.243 30.356 126.394 33.3693 121.472 33.3693C115.368 33.3693 110.809 28.6507 110.809 22.6241C110.809 16.2341 115.407 11.8789 120.944 11.8789C126.52 11.8789 129.247 16.3165 130.139 18.7145L130.628 19.9354L116.264 25.8845C117.364 28.0403 119.074 29.14 121.472 29.14C123.875 29.14 125.541 27.9579 126.762 26.1654ZM115.489 22.2995L125.091 18.3124C124.563 16.9705 122.974 16.0355 121.104 16.0355C118.706 16.0355 115.368 18.1526 115.489 22.2995Z" fill="white"/>
<path d="M16.922 19.8335V15.2748H32.284C32.4342 16.0693 32.5117 17.0092 32.5117 18.0265C32.5117 21.4467 31.5767 25.676 28.5634 28.6893C25.6324 31.7414 21.8876 33.3691 16.9268 33.3691C7.73187 33.3691 0 25.8795 0 16.6846C0 7.48965 7.73187 0 16.9268 0C22.0136 0 25.6373 1.99595 28.3599 4.59746L25.1431 7.81423C23.1908 5.983 20.5457 4.55871 16.922 4.55871C10.2074 4.55871 4.95596 9.97005 4.95596 16.6846C4.95596 23.3991 10.2074 28.8104 16.922 28.8104C21.2772 28.8104 23.7576 27.0616 25.3466 25.4726C26.6352 24.1839 27.483 22.343 27.8173 19.8287L16.922 19.8335Z" fill="white"/>
</svg>
